<svg width="24" height="24" viewBox="0 0 24 24" fill="none" xmlns="http://www.w3.org/2000/svg">
<path fill-rule="evenodd" clip-rule="evenodd" d="M0 7C0 6.44772 0.447716 6 1 6H23C23.5523 6 24 6.44772 24 7V7C24 7.55228 23.5523 8 23 8H1C0.447715 8 0 7.55228 0 7V7ZM0 12C0 11.4477 0.447716 11 1 11H23C23.5523 11 24 11.4477 24 12V12C24 12.5523 23.5523 13 23 13H1C0.447715 13 0 12.5523 0 12V12ZM24 17C24 16.4477 23.5523 16 23 16H1C0.447715 16 0 16.4477 0 17V17C0 17.5523 0.447716 18 1 18H23C23.5523 18 24 17.5523 24 17V17Z" fill="#383838"/>
</svg>
